<svg xmlns="http://www.w3.org/2000/svg" xmlns:xlink="http://www.w3.org/1999/xlink" width="500" zoomAndPan="magnify" viewBox="0 0 375 374.999991" height="500" preserveAspectRatio="xMidYMid meet" version="1.0"><defs><g/><clipPath id="d3d9a2f0dd"><path d="M 37.5 202.191406 L 76.5 202.191406 L 76.5 203.691406 L 37.5 203.691406 Z M 37.5 202.191406 " clip-rule="nonzero"/></clipPath><clipPath id="3d126d32db"><path d="M 298.875 202.191406 L 337.875 202.191406 L 337.875 203.691406 L 298.875 203.691406 Z M 298.875 202.191406 " clip-rule="nonzero"/></clipPath></defs><g fill="#ffffff" fill-opacity="1"><g transform="translate(92.127329, 206.27073)"><g><path d="M 0.15625 0 C 0.0507812 0 0 -0.0507812 0 -0.15625 L 0 -6.078125 C 0 -6.523438 0.144531 -6.894531 0.4375 -7.1875 C 0.738281 -7.488281 1.113281 -7.640625 1.5625 -7.640625 L 10.53125 -7.640625 C 10.632812 -7.640625 10.6875 -7.585938 10.6875 -7.484375 L 10.6875 -6.265625 C 10.6875 -6.160156 10.632812 -6.109375 10.53125 -6.109375 L 1.828125 -6.109375 C 1.742188 -6.109375 1.671875 -6.078125 1.609375 -6.015625 C 1.554688 -5.953125 1.53125 -5.878906 1.53125 -5.796875 L 1.53125 -4.578125 L 9.796875 -4.578125 C 9.921875 -4.578125 9.984375 -4.523438 9.984375 -4.421875 L 9.984375 -3.203125 C 9.984375 -3.097656 9.921875 -3.046875 9.796875 -3.046875 L 1.53125 -3.046875 L 1.53125 -0.15625 C 1.53125 -0.0507812 1.476562 0 1.375 0 Z M 0.15625 0 "/></g></g></g><g fill="#ffffff" fill-opacity="1"><g transform="translate(110.759201, 206.27073)"><g><path d="M 1.5625 0 C 1.113281 0 0.738281 -0.144531 0.4375 -0.4375 C 0.144531 -0.738281 0 -1.113281 0 -1.5625 L 0 -7.484375 C 0 -7.585938 0.0507812 -7.640625 0.15625 -7.640625 L 1.375 -7.640625 C 1.476562 -7.640625 1.53125 -7.585938 1.53125 -7.484375 L 1.53125 -1.828125 C 1.53125 -1.742188 1.554688 -1.671875 1.609375 -1.609375 C 1.671875 -1.554688 1.742188 -1.53125 1.828125 -1.53125 L 8.859375 -1.53125 C 8.929688 -1.53125 9 -1.554688 9.0625 -1.609375 C 9.125 -1.671875 9.15625 -1.742188 9.15625 -1.828125 L 9.15625 -7.484375 C 9.15625 -7.585938 9.207031 -7.640625 9.3125 -7.640625 L 10.53125 -7.640625 C 10.632812 -7.640625 10.6875 -7.585938 10.6875 -7.484375 L 10.6875 -1.5625 C 10.6875 -1.113281 10.535156 -0.738281 10.234375 -0.4375 C 9.941406 -0.144531 9.570312 0 9.125 0 Z M 1.5625 0 "/></g></g></g><g fill="#ffffff" fill-opacity="1"><g transform="translate(129.391073, 206.27073)"><g><path d="M 0.15625 0 C 0.0507812 0 0 -0.0507812 0 -0.15625 L 0 -7.484375 C 0 -7.585938 0.0507812 -7.640625 0.15625 -7.640625 L 1.375 -7.640625 C 1.476562 -7.640625 1.53125 -7.585938 1.53125 -7.484375 L 1.53125 -4.578125 L 9.15625 -4.578125 L 9.15625 -7.484375 C 9.15625 -7.585938 9.207031 -7.640625 9.3125 -7.640625 L 10.53125 -7.640625 C 10.632812 -7.640625 10.6875 -7.585938 10.6875 -7.484375 L 10.6875 -0.15625 C 10.6875 -0.0507812 10.632812 0 10.53125 0 L 9.3125 0 C 9.207031 0 9.15625 -0.0507812 9.15625 -0.15625 L 9.15625 -3.046875 L 1.53125 -3.046875 L 1.53125 -0.15625 C 1.53125 -0.0507812 1.476562 0 1.375 0 Z M 0.15625 0 "/></g></g></g><g fill="#ffffff" fill-opacity="1"><g transform="translate(148.022945, 206.27073)"><g/></g></g><g fill="#ffffff" fill-opacity="1"><g transform="translate(159.026291, 206.27073)"><g><path d="M 4.734375 0 C 4.628906 0 4.578125 -0.0507812 4.578125 -0.15625 L 4.578125 -6.109375 L 0.15625 -6.109375 C 0.0507812 -6.109375 0 -6.160156 0 -6.265625 L 0 -7.484375 C 0 -7.585938 0.0507812 -7.640625 0.15625 -7.640625 L 10.53125 -7.640625 C 10.632812 -7.640625 10.6875 -7.585938 10.6875 -7.484375 L 10.6875 -6.265625 C 10.6875 -6.160156 10.632812 -6.109375 10.53125 -6.109375 L 6.109375 -6.109375 L 6.109375 -0.15625 C 6.109375 -0.0507812 6.054688 0 5.953125 0 Z M 4.734375 0 "/></g></g></g><g fill="#ffffff" fill-opacity="1"><g transform="translate(177.658163, 206.27073)"><g><path d="M 0.15625 0 C 0.0507812 0 0 -0.0507812 0 -0.15625 L 0 -6.078125 C 0 -6.523438 0.144531 -6.894531 0.4375 -7.1875 C 0.738281 -7.488281 1.113281 -7.640625 1.5625 -7.640625 L 9.125 -7.640625 C 9.570312 -7.640625 9.941406 -7.488281 10.234375 -7.1875 C 10.535156 -6.894531 10.6875 -6.523438 10.6875 -6.078125 L 10.6875 -0.15625 C 10.6875 -0.0507812 10.632812 0 10.53125 0 L 9.3125 0 C 9.207031 0 9.15625 -0.0507812 9.15625 -0.15625 L 9.15625 -3.046875 L 1.53125 -3.046875 L 1.53125 -0.15625 C 1.53125 -0.0507812 1.476562 0 1.375 0 Z M 1.53125 -4.578125 L 9.15625 -4.578125 L 9.15625 -5.796875 C 9.15625 -5.878906 9.125 -5.953125 9.0625 -6.015625 C 9 -6.078125 8.929688 -6.109375 8.859375 -6.109375 L 1.828125 -6.109375 C 1.742188 -6.109375 1.671875 -6.078125 1.609375 -6.015625 C 1.554688 -5.953125 1.53125 -5.878906 1.53125 -5.796875 Z M 1.53125 -4.578125 "/></g></g></g><g fill="#ffffff" fill-opacity="1"><g transform="translate(196.290035, 206.27073)"><g><path d="M 1.5625 0 C 1.113281 0 0.738281 -0.144531 0.4375 -0.4375 C 0.144531 -0.738281 0 -1.113281 0 -1.5625 L 0 -7.484375 C 0 -7.585938 0.0507812 -7.640625 0.15625 -7.640625 L 1.375 -7.640625 C 1.476562 -7.640625 1.53125 -7.585938 1.53125 -7.484375 L 1.53125 -1.828125 C 1.53125 -1.742188 1.554688 -1.671875 1.609375 -1.609375 C 1.671875 -1.554688 1.742188 -1.53125 1.828125 -1.53125 L 10.53125 -1.53125 C 10.632812 -1.53125 10.6875 -1.476562 10.6875 -1.375 L 10.6875 -0.15625 C 10.6875 -0.0507812 10.632812 0 10.53125 0 Z M 1.5625 0 "/></g></g></g><g fill="#ffffff" fill-opacity="1"><g transform="translate(214.921907, 206.27073)"><g><path d="M 0.15625 0 C 0.0507812 0 0 -0.0507812 0 -0.15625 L 0 -6.078125 C 0 -6.523438 0.144531 -6.894531 0.4375 -7.1875 C 0.738281 -7.488281 1.113281 -7.640625 1.5625 -7.640625 L 9.125 -7.640625 C 9.570312 -7.640625 9.941406 -7.488281 10.234375 -7.1875 C 10.535156 -6.894531 10.6875 -6.523438 10.6875 -6.078125 L 10.6875 -0.15625 C 10.6875 -0.0507812 10.632812 0 10.53125 0 L 9.3125 0 C 9.207031 0 9.15625 -0.0507812 9.15625 -0.15625 L 9.15625 -3.046875 L 1.53125 -3.046875 L 1.53125 -0.15625 C 1.53125 -0.0507812 1.476562 0 1.375 0 Z M 1.53125 -4.578125 L 9.15625 -4.578125 L 9.15625 -5.796875 C 9.15625 -5.878906 9.125 -5.953125 9.0625 -6.015625 C 9 -6.078125 8.929688 -6.109375 8.859375 -6.109375 L 1.828125 -6.109375 C 1.742188 -6.109375 1.671875 -6.078125 1.609375 -6.015625 C 1.554688 -5.953125 1.53125 -5.878906 1.53125 -5.796875 Z M 1.53125 -4.578125 "/></g></g></g><g fill="#ffffff" fill-opacity="1"><g transform="translate(233.553779, 206.27073)"><g><path d="M 0.15625 0 C 0.0507812 0 0 -0.0507812 0 -0.15625 L 0 -7.484375 C 0 -7.585938 0.0507812 -7.640625 0.15625 -7.640625 L 9.125 -7.640625 C 9.570312 -7.640625 9.941406 -7.488281 10.234375 -7.1875 C 10.535156 -6.894531 10.6875 -6.523438 10.6875 -6.078125 L 10.6875 -4.609375 C 10.6875 -4.160156 10.535156 -3.785156 10.234375 -3.484375 C 9.941406 -3.191406 9.570312 -3.046875 9.125 -3.046875 L 8.96875 -3.046875 L 10.046875 0 L 8.359375 0 L 7.296875 -3.046875 L 1.53125 -3.046875 L 1.53125 -0.15625 C 1.53125 -0.0507812 1.476562 0 1.375 0 Z M 1.53125 -4.578125 L 8.859375 -4.578125 C 8.929688 -4.578125 9 -4.609375 9.0625 -4.671875 C 9.125 -4.734375 9.15625 -4.804688 9.15625 -4.890625 L 9.15625 -5.796875 C 9.15625 -5.878906 9.125 -5.953125 9.0625 -6.015625 C 9 -6.078125 8.929688 -6.109375 8.859375 -6.109375 L 1.53125 -6.109375 Z M 1.53125 -4.578125 "/></g></g></g><g fill="#ffffff" fill-opacity="1"><g transform="translate(252.185651, 206.27073)"><g><path d="M 1.5625 0 C 1.113281 0 0.738281 -0.144531 0.4375 -0.4375 C 0.144531 -0.738281 0 -1.113281 0 -1.5625 L 0 -6.078125 C 0 -6.523438 0.144531 -6.894531 0.4375 -7.1875 C 0.738281 -7.488281 1.113281 -7.640625 1.5625 -7.640625 L 10.53125 -7.640625 C 10.632812 -7.640625 10.6875 -7.585938 10.6875 -7.484375 L 10.6875 -6.265625 C 10.6875 -6.160156 10.632812 -6.109375 10.53125 -6.109375 L 1.828125 -6.109375 C 1.742188 -6.109375 1.671875 -6.078125 1.609375 -6.015625 C 1.554688 -5.953125 1.53125 -5.878906 1.53125 -5.796875 L 1.53125 -4.578125 L 9.796875 -4.578125 C 9.921875 -4.578125 9.984375 -4.523438 9.984375 -4.421875 L 9.984375 -3.203125 C 9.984375 -3.097656 9.921875 -3.046875 9.796875 -3.046875 L 1.53125 -3.046875 L 1.53125 -1.828125 C 1.53125 -1.742188 1.554688 -1.671875 1.609375 -1.609375 C 1.671875 -1.554688 1.742188 -1.53125 1.828125 -1.53125 L 10.53125 -1.53125 C 10.632812 -1.53125 10.6875 -1.476562 10.6875 -1.375 L 10.6875 -0.15625 C 10.6875 -0.0507812 10.632812 0 10.53125 0 Z M 1.5625 0 "/></g></g></g><g fill="#ffffff" fill-opacity="1"><g transform="translate(270.817523, 206.27073)"><g><path d="M 0.15625 0 C 0.0507812 0 0 -0.0507812 0 -0.15625 L 0 -7.484375 C 0 -7.585938 0.0507812 -7.640625 0.15625 -7.640625 L 1.375 -7.640625 C 1.476562 -7.640625 1.53125 -7.585938 1.53125 -7.484375 L 1.53125 -4.578125 L 8.1875 -4.578125 L 9.21875 -7.546875 C 9.238281 -7.609375 9.285156 -7.640625 9.359375 -7.640625 L 10.6875 -7.640625 C 10.75 -7.640625 10.796875 -7.613281 10.828125 -7.5625 C 10.867188 -7.519531 10.878906 -7.46875 10.859375 -7.40625 L 9.609375 -3.8125 L 10.859375 -0.234375 C 10.878906 -0.171875 10.867188 -0.113281 10.828125 -0.0625 C 10.796875 -0.0195312 10.75 0 10.6875 0 L 9.359375 0 C 9.285156 0 9.238281 -0.03125 9.21875 -0.09375 L 8.1875 -3.046875 L 1.53125 -3.046875 L 1.53125 -0.15625 C 1.53125 -0.0507812 1.476562 0 1.375 0 Z M 0.15625 0 "/></g></g></g><g clip-path="url(#d3d9a2f0dd)"><path fill="#f09721" d="M 74.191406 206.816406 L 74.191406 219.488281 L 77.316406 222.613281 L 77.316406 224.625 L 37.054688 224.625 L 37.054688 180.261719 L 77.316406 180.261719 L 77.316406 203.691406 Z M 74.191406 206.816406 " fill-opacity="1" fill-rule="nonzero"/></g><g clip-path="url(#3d126d32db)"><path fill="#f09721" d="M 335.566406 206.816406 L 335.566406 219.488281 L 338.691406 222.613281 L 338.691406 224.625 L 298.429688 224.625 L 298.429688 180.261719 L 338.691406 180.261719 L 338.691406 203.691406 Z M 335.566406 206.816406 " fill-opacity="1" fill-rule="nonzero"/></g><path fill="#f09721" d="M 170.660156 169.671875 C 170.660156 169.671875 184.859375 164.308594 207.679688 169.671875 C 230.496094 175.035156 238.28125 182.921875 238.28125 182.921875 L 214.023438 182.921875 C 211.804688 179.984375 205.914062 173.539062 196.003906 172.089844 C 196.003906 172.089844 206.570312 175.085938 210.242188 182.921875 L 203.226562 182.921875 C 203.226562 182.921875 191.867188 167.566406 173.78125 179.066406 C 173.78125 179.066406 177.074219 172.933594 183.070312 170.199219 C 183.070312 170.199219 177.601562 168.410156 170.660156 169.671875 " fill-opacity="1" fill-rule="nonzero"/><path fill="#f09721" d="M 227.34375 159.679688 C 227.34375 159.679688 198.949219 158.527344 167.925781 160.839844 C 167.925781 160.839844 155.203125 151.515625 150.714844 148.148438 C 146.226562 144.785156 189.90625 139.597656 227.34375 159.679688 Z M 65.253906 182.921875 C 79.277344 173.597656 88.671875 182.921875 88.671875 182.921875 C 88.671875 182.921875 87.128906 173.316406 101.007812 175 C 114.890625 176.683594 159.898438 182.921875 159.898438 182.921875 L 94.839844 167.988281 C 139.429688 173.179688 154.851562 166.867188 154.851562 166.867188 C 115.292969 170.492188 98.625 158.597656 98.625 158.597656 C 98.625 158.597656 117.976562 144.996094 133.257812 147.519531 C 148.542969 150.042969 159.410156 166.304688 159.410156 166.304688 C 211.78125 153.265625 255.734375 182.921875 255.734375 182.921875 L 311.894531 182.921875 C 306.566406 177.035156 294.855469 172.6875 294.855469 172.6875 C 300.886719 174.578125 306.285156 176.964844 306.285156 176.964844 C 294.507812 163.503906 273.054688 166.027344 273.054688 166.027344 C 257.628906 161.539062 234.914062 159.789062 234.914062 159.789062 C 202.523438 141.699219 169.996094 141.347656 137.183594 143.453125 C 104.375 145.554688 91.265625 163.046875 82.011719 163.46875 C 72.753906 163.890625 69.109375 168.902344 69.742188 168.691406 C 70.371094 168.480469 72.019531 168.199219 72.019531 168.199219 C 63.082031 173.351562 65.253906 182.921875 65.253906 182.921875 " fill-opacity="1" fill-rule="nonzero"/></svg>